<?xml version="1.0" encoding="UTF-8" standalone="no"?>
<!DOCTYPE svg PUBLIC "-//W3C//DTD SVG 1.1//EN" "http://www.w3.org/Graphics/SVG/1.1/DTD/svg11.dtd">
<svg width="100%" height="100%" viewBox="0 0 5000 1000" version="1.1" xmlns="http://www.w3.org/2000/svg" xmlns:xlink="http://www.w3.org/1999/xlink" xml:space="preserve" xmlns:serif="http://www.serif.com/" style="fill-rule:evenodd;clip-rule:evenodd;stroke-linejoin:round;stroke-miterlimit:1.41421;">
    <g transform="matrix(2,0,0,2,-75.4398,-952.262)">
        <path d="M655.2,614.417L655.2,891.509C653.48,892.197 650.814,892.971 647.202,893.831C643.59,894.691 639.892,895.121 636.108,895.121C620.972,895.121 613.404,888.757 613.404,876.029L613.404,614.417L516.912,614.417C515.88,612.697 514.848,610.375 513.816,607.451C512.784,604.527 512.268,601.173 512.268,597.389C512.268,591.541 513.644,586.983 516.396,583.715C519.148,580.447 523.104,578.813 528.264,578.813L751.692,578.813C752.724,580.533 753.756,582.855 754.788,585.779C755.82,588.703 756.336,591.885 756.336,595.325C756.336,601.173 754.96,605.817 752.208,609.257C749.456,612.697 745.5,614.417 740.34,614.417L655.2,614.417Z" style="fill:rgb(43,43,43);fill-rule:nonzero;"/>
        <path d="M849.216,891.509C847.496,892.197 844.916,892.971 841.476,893.831C838.036,894.691 834.252,895.121 830.124,895.121C815.332,895.121 807.936,888.929 807.936,876.545L807.936,655.181C809.656,654.493 812.322,653.719 815.934,652.859C819.546,651.999 823.416,651.569 827.544,651.569C841.992,651.569 849.216,657.933 849.216,670.661L849.216,891.509ZM801.744,578.813C801.744,571.589 804.238,565.483 809.226,560.495C814.214,555.507 820.664,553.013 828.576,553.013C836.488,553.013 842.852,555.507 847.668,560.495C852.484,565.483 854.892,571.589 854.892,578.813C854.892,586.037 852.484,592.143 847.668,597.131C842.852,602.119 836.488,604.613 828.576,604.613C820.664,604.613 814.214,602.119 809.226,597.131C804.238,592.143 801.744,586.037 801.744,578.813Z" style="fill:rgb(43,43,43);fill-rule:nonzero;"/>
        <path d="M1232.09,730.517C1232.09,713.661 1227.27,701.277 1217.64,693.365C1208.01,685.453 1195.11,681.497 1178.94,681.497C1156.58,681.497 1136.63,689.409 1119.08,705.233C1121.15,712.113 1122.18,719.509 1122.18,727.421L1122.18,891.509C1120.46,892.197 1117.79,892.971 1114.18,893.831C1110.57,894.691 1106.87,895.121 1103.09,895.121C1088.3,895.121 1080.9,888.929 1080.9,876.545L1080.9,730.517C1080.9,713.661 1076.08,701.277 1066.45,693.365C1056.82,685.453 1043.75,681.497 1027.24,681.497C1016.23,681.497 1005.82,683.217 996.018,686.657C986.214,690.097 977.872,694.053 970.992,698.525L970.992,891.509C969.272,892.197 966.692,892.971 963.252,893.831C959.812,894.691 956.028,895.121 951.9,895.121C937.108,895.121 929.712,888.929 929.712,876.545L929.712,700.589C929.712,693.709 931.174,687.947 934.098,683.303C937.022,678.659 942.096,673.929 949.32,669.113C958.608,663.265 970.39,658.191 984.666,653.891C998.942,649.591 1013.3,647.441 1027.75,647.441C1044.61,647.441 1059.57,649.935 1072.64,654.923C1085.72,659.911 1095.69,666.705 1102.57,675.305C1111.52,667.393 1122.7,660.771 1136.11,655.439C1149.53,650.107 1164.84,647.441 1182.04,647.441C1209.9,647.441 1232.09,654.063 1248.6,667.307C1265.11,680.551 1273.37,700.933 1273.37,728.453L1273.37,891.509C1271.65,892.197 1268.98,892.971 1265.37,893.831C1261.76,894.691 1258.06,895.121 1254.28,895.121C1239.48,895.121 1232.09,888.929 1232.09,876.545L1232.09,730.517Z" style="fill:rgb(43,43,43);fill-rule:nonzero;"/>
        <path d="M1380.18,797.597C1389.47,842.661 1419.05,865.193 1468.93,865.193C1483.38,865.193 1496.45,862.785 1508.15,857.969C1519.84,853.153 1529.13,847.993 1536.01,842.489C1544.27,847.305 1548.4,853.841 1548.4,862.097C1548.4,866.913 1546.25,871.557 1541.95,876.029C1537.65,880.501 1531.8,884.457 1524.4,887.897C1517.01,891.337 1508.41,894.089 1498.6,896.153C1488.8,898.217 1478.22,899.249 1466.87,899.249C1426.96,899.249 1395.4,888.413 1372.18,866.741C1348.96,845.069 1337.35,813.421 1337.35,771.797C1337.35,752.189 1340.19,734.731 1345.87,719.423C1351.54,704.115 1359.45,691.129 1369.6,680.465C1379.75,669.801 1391.88,661.631 1405.98,655.955C1420.08,650.279 1435.39,647.441 1451.9,647.441C1467.38,647.441 1481.66,650.021 1494.73,655.181C1507.8,660.341 1519.07,667.651 1528.53,677.111C1537.99,686.571 1545.39,697.751 1550.72,710.651C1556.05,723.551 1558.72,737.741 1558.72,753.221C1558.72,760.789 1557,766.207 1553.56,769.475C1550.12,772.743 1545.3,774.721 1539.11,775.409L1380.18,797.597ZM1451.39,680.981C1430.4,680.981 1413.03,688.291 1399.27,702.911C1385.51,717.531 1378.29,738.429 1377.6,765.605L1519.5,745.997C1517.78,727.077 1511.16,711.511 1499.63,699.299C1488.11,687.087 1472.03,680.981 1451.39,680.981Z" style="fill:rgb(43,43,43);fill-rule:nonzero;"/>
        <path d="M1668.11,780.569L1668.11,891.509C1666.04,892.197 1663.29,892.971 1659.85,893.831C1656.41,894.691 1652.63,895.121 1648.5,895.121C1633.36,895.121 1625.8,888.757 1625.8,876.029L1625.8,601.517C1625.8,596.013 1627.17,591.799 1629.92,588.875C1632.68,585.951 1636.98,583.629 1642.82,581.909C1652.8,578.813 1664.93,576.577 1679.2,575.201C1693.48,573.825 1707.32,573.137 1720.74,573.137C1764.43,573.137 1796.33,582.339 1816.46,600.743C1836.58,619.147 1846.64,644.001 1846.64,675.305C1846.64,707.297 1836.32,732.839 1815.68,751.931C1795.04,771.023 1763.22,780.569 1720.22,780.569L1668.11,780.569ZM1717.64,745.481C1745.16,745.481 1766.49,739.805 1781.63,728.453C1796.76,717.101 1804.33,699.557 1804.33,675.821C1804.33,652.429 1797.02,635.315 1782.4,624.479C1767.78,613.643 1746.88,608.225 1719.71,608.225C1710.42,608.225 1701.22,608.655 1692.1,609.515C1682.99,610.375 1674.82,611.493 1667.59,612.869L1667.59,745.481L1717.64,745.481Z" style="fill:rgb(43,43,43);fill-rule:nonzero;"/>
        <path d="M2163.98,891.509C2161.92,892.197 2159.17,892.971 2155.73,893.831C2152.29,894.691 2148.5,895.121 2144.38,895.121C2129.24,895.121 2121.67,888.757 2121.67,876.029L2121.67,751.157L1960.68,751.157L1960.68,891.509C1958.62,892.197 1955.86,892.971 1952.42,893.831C1948.98,894.691 1945.2,895.121 1941.07,895.121C1925.94,895.121 1918.37,888.757 1918.37,876.029L1918.37,579.845C1920.09,579.157 1922.75,578.383 1926.37,577.523C1929.98,576.663 1933.85,576.233 1937.98,576.233C1953.11,576.233 1960.68,582.597 1960.68,595.325L1960.68,716.069L2121.67,716.069L2121.67,579.845C2123.39,579.157 2126.06,578.383 2129.67,577.523C2133.28,576.663 2137.15,576.233 2141.28,576.233C2156.42,576.233 2163.98,582.597 2163.98,595.325L2163.98,891.509Z" style="fill:rgb(43,43,43);fill-rule:nonzero;"/>
        <path d="M2298.14,780.569L2298.14,891.509C2296.08,892.197 2293.33,892.971 2289.89,893.831C2286.45,894.691 2282.66,895.121 2278.54,895.121C2263.4,895.121 2255.83,888.757 2255.83,876.029L2255.83,601.517C2255.83,596.013 2257.21,591.799 2259.96,588.875C2262.71,585.951 2267.01,583.629 2272.86,581.909C2282.84,578.813 2294.96,576.577 2309.24,575.201C2323.51,573.825 2337.36,573.137 2350.78,573.137C2394.46,573.137 2426.37,582.339 2446.49,600.743C2466.62,619.147 2476.68,644.001 2476.68,675.305C2476.68,707.297 2466.36,732.839 2445.72,751.931C2425.08,771.023 2393.26,780.569 2350.26,780.569L2298.14,780.569ZM2347.68,745.481C2375.2,745.481 2396.53,739.805 2411.66,728.453C2426.8,717.101 2434.37,699.557 2434.37,675.821C2434.37,652.429 2427.06,635.315 2412.44,624.479C2397.82,613.643 2376.92,608.225 2349.74,608.225C2340.46,608.225 2331.25,608.655 2322.14,609.515C2313.02,610.375 2304.85,611.493 2297.63,612.869L2297.63,745.481L2347.68,745.481Z" style="fill:rgb(43,43,43);fill-rule:nonzero;"/>
    </g>
    <g id="sablier" transform="matrix(0.983539,0,0,0.983539,-164.77,8.23045)">
        <path d="M252,396.502C252,386.588 250.36,376.742 247.146,367.363C237.844,340.332 232.834,311.329 232.834,281.166C232.834,133.713 352.547,14 500,14C647.453,14 767.166,133.713 767.166,281.166C767.166,314.017 761.224,345.492 750.356,374.572C748.248,380.162 747.168,386.087 747.168,392.062C747.138,429.713 747.138,570.653 747.138,608.067C747.138,613.965 748.206,619.813 750.29,625.33C761.209,654.431 767.166,685.942 767.166,718.834C767.166,866.287 647.453,986 500,986C352.547,986 232.834,866.287 232.834,718.834C232.834,687.584 238.211,657.581 248.09,629.698C250.646,622.537 251.953,614.991 251.953,607.388C252,567.832 252,441.249 252,396.502ZM445.808,505.388C448.295,504.785 450.046,502.559 450.046,500C450.046,497.441 448.295,495.215 445.808,494.612C350.457,470.442 279.823,383.987 279.823,281.166C279.823,159.647 378.481,60.989 500,60.989C621.519,60.989 720.177,159.647 720.177,281.166C720.177,383.671 649.977,469.909 555.072,494.387C552.49,495.025 550.677,497.341 550.677,500C550.677,502.659 552.49,504.975 555.072,505.613C649.977,530.091 720.177,616.329 720.177,718.834C720.177,840.353 621.519,939.011 500,939.011C378.481,939.011 279.823,840.353 279.823,718.834C279.823,616.013 350.457,529.558 445.808,505.388ZM292.202,449.021C289.966,446.22 286.203,445.138 282.82,446.323C279.437,447.508 277.172,450.701 277.172,454.286C277.138,478.745 277.138,515.486 277.138,541.302C277.138,545.544 279.799,549.329 283.79,550.766C287.78,552.202 292.243,550.981 294.946,547.712C306.145,534.24 318.675,521.917 332.307,510.905C335.631,508.262 337.569,504.247 337.568,500C337.568,495.753 335.631,491.738 332.307,489.095C317.568,477.19 304.119,463.751 292.202,449.021ZM722,457.07C722,453.228 719.584,449.801 715.966,448.509C712.347,447.217 708.307,448.34 705.874,451.314C694.558,465.044 681.873,477.602 668.048,488.808C664.643,491.525 662.66,495.644 662.66,500C662.66,504.356 664.643,508.475 668.048,511.192C681.386,522.003 693.663,534.072 704.699,547.218C707.325,550.379 711.651,551.555 715.517,550.159C719.382,548.762 721.958,545.093 721.958,540.983C722,516.289 722,481.196 722,457.07Z" style="fill:rgb(64,64,64);"/>
    </g>
    <g id="aiguille-heure" serif:id="aiguille heure" transform="matrix(0.983539,0,0,0.983539,-164.77,8.23045)">
        <path d="M488.61,269.776L488.608,269.774C488.608,269.774 497.725,260.657 508.539,249.843C531.898,226.484 557.58,205.571 585.187,187.43C585.189,187.429 585.19,187.428 585.191,187.427C587.637,185.82 590.875,186.152 592.945,188.221C595.014,190.291 595.346,193.529 593.738,195.975C593.738,195.976 593.737,195.977 593.736,195.978C575.594,223.585 554.681,249.268 531.323,272.627L516.11,287.839L516.11,639.624C516.111,659.856 520.896,678.804 529.226,695.035C532.816,702.063 539.27,707.195 546.925,709.109C554.541,711.015 561.82,713.832 568.591,717.463C572.176,719.427 575.24,722.217 577.53,725.603C580.483,729.809 585.299,733.837 591.407,736.966C593.747,738.162 595.787,739.871 597.374,741.967C597.4,741.947 597.4,741.947 597.4,741.947C600.387,745.953 605.091,748.313 610.088,748.313C610.088,748.37 610.088,748.37 610.088,748.37C620.549,748.37 630.612,746.388 640.014,742.732C645.622,738.1 652.963,733.253 661.121,730.934C668.306,725.543 674.816,719.047 680.471,711.655C683.535,707.721 688.759,706.167 693.475,707.786C698.191,709.406 701.358,713.842 701.358,718.829C701.381,718.831 701.381,718.832 701.381,718.834C701.381,829.98 611.145,920.215 500,920.215L499.349,920.214C388.503,919.863 298.619,829.763 298.619,718.834C298.619,718.832 298.619,718.831 298.619,718.829C298.62,713.833 301.793,709.389 306.518,707.767C311.243,706.144 316.476,707.701 319.547,711.642C325.536,719.484 332.489,726.317 340.191,731.893C344.902,735.327 350.976,736.289 356.518,734.481C358.217,733.941 360.015,733.429 361.919,732.954C365.66,732.004 369.577,731.98 373.329,732.884C377.495,733.851 383.793,733.394 393.16,730.492C395.352,729.816 397.641,729.503 399.934,729.565C407.539,729.795 415.928,730.489 425.176,731.751C433.836,732.924 442.565,730.15 448.958,724.192C470.262,704.255 483.889,673.767 483.89,639.624L483.89,281.166C483.89,276.72 485.694,272.692 488.61,269.776Z" style="fill:url(#_Linear1);"/>
    </g>
    <g id="indicateur" transform="matrix(1.32044,0,0,1.32044,-333.221,-160.221)">
        <g transform="matrix(3.5,0,0,2,-1250,-179)">
            <path d="M502,176.5C502,175.672 501.616,175 501.143,175L498.857,175C498.384,175 498,175.672 498,176.5L498,179.5C498,180.328 498.384,181 498.857,181L501.143,181C501.616,181 502,180.328 502,179.5L502,176.5Z" style="fill:rgb(80,80,80);"/>
        </g>
        <g transform="matrix(2.14313e-16,3.5,-2,1.22465e-16,1016,-1413)">
            <path d="M502,176.5C502,175.672 501.616,175 501.143,175L498.857,175C498.384,175 498,175.672 498,176.5L498,179.5C498,180.328 498.384,181 498.857,181L501.143,181C501.616,181 502,180.328 502,179.5L502,176.5Z" style="fill:rgb(80,80,80);"/>
        </g>
        <g transform="matrix(2.14313e-16,-3.5,2,1.22465e-16,-16,2087)">
            <path d="M502,176.5C502,175.672 501.616,175 501.143,175L498.857,175C498.384,175 498,175.672 498,176.5L498,179.5C498,180.328 498.384,181 498.857,181L501.143,181C501.616,181 502,180.328 502,179.5L502,176.5Z" style="fill:rgb(80,80,80);"/>
        </g>
    </g>
    <defs>
        <linearGradient id="_Linear1" x1="0" y1="0" x2="1" y2="0" gradientUnits="userSpaceOnUse" gradientTransform="matrix(402.762,0,0,733.802,298.619,553.314)"><stop offset="0" style="stop-color:rgb(119,119,119);stop-opacity:1"/><stop offset="1" style="stop-color:rgb(41,41,41);stop-opacity:1"/></linearGradient>
    </defs>
</svg>
